<svg xmlns="http://www.w3.org/2000/svg" version="1.1" xmlns:xlink="http://www.w3.org/1999/xlink" xmlns:svgjs="http://svgjs.dev/svgjs" viewBox="0 0 800 800" opacity="1" width="800" height="800"><g stroke-width="0.5" stroke="#fcb045ff" fill="none"><rect width="33.333333333333336" height="1" x="-16.666666666666668" y="-0.5" stroke="none" fill="#fd1d1dff" rx="0.5"></rect><rect width="1" height="33.333333333333336" x="-0.5" y="-16.666666666666668" stroke="none" fill="#fd1d1dff" rx="0.5"></rect><rect width="33.333333333333336" height="1" x="50" y="-0.5" stroke="none" fill="#fcb045ff" rx="0.5"></rect><rect width="1" height="33.333333333333336" x="66.16666666666667" y="-16.666666666666668" stroke="none" fill="#fcb045ff" rx="0.5"></rect><rect width="33.333333333333336" height="1" x="116.66666666666667" y="-0.5" stroke="none" fill="#fd1d1dff" rx="0.5"></rect><rect width="1" height="33.333333333333336" x="132.83333333333334" y="-16.666666666666668" stroke="none" fill="#fd1d1dff" rx="0.5"></rect><rect width="33.333333333333336" height="1" x="183.33333333333334" y="-0.5" stroke="none" fill="#fcb045ff" rx="0.5"></rect><rect width="1" height="33.333333333333336" x="199.5" y="-16.666666666666668" stroke="none" fill="#fcb045ff" rx="0.5"></rect><rect width="33.333333333333336" height="1" x="250.00000000000003" y="-0.5" stroke="none" fill="#fd1d1dff" rx="0.5"></rect><rect width="1" height="33.333333333333336" x="266.1666666666667" y="-16.666666666666668" stroke="none" fill="#fd1d1dff" rx="0.5"></rect><rect width="33.333333333333336" height="1" x="316.6666666666667" y="-0.5" stroke="none" fill="#fcb045ff" rx="0.5"></rect><rect width="1" height="33.333333333333336" x="332.83333333333337" y="-16.666666666666668" stroke="none" fill="#fcb045ff" rx="0.5"></rect><rect width="33.333333333333336" height="1" x="383.33333333333337" y="-0.5" stroke="none" fill="#fd1d1dff" rx="0.5"></rect><rect width="1" height="33.333333333333336" x="399.50000000000006" y="-16.666666666666668" stroke="none" fill="#fd1d1dff" rx="0.5"></rect><rect width="33.333333333333336" height="1" x="450.00000000000006" y="-0.5" stroke="none" fill="#fcb045ff" rx="0.5"></rect><rect width="1" height="33.333333333333336" x="466.16666666666674" y="-16.666666666666668" stroke="none" fill="#fcb045ff" rx="0.5"></rect><rect width="33.333333333333336" height="1" x="516.6666666666667" y="-0.5" stroke="none" fill="#fd1d1dff" rx="0.5"></rect><rect width="1" height="33.333333333333336" x="532.8333333333334" y="-16.666666666666668" stroke="none" fill="#fd1d1dff" rx="0.5"></rect><rect width="33.333333333333336" height="1" x="583.3333333333334" y="-0.5" stroke="none" fill="#fcb045ff" rx="0.5"></rect><rect width="1" height="33.333333333333336" x="599.5" y="-16.666666666666668" stroke="none" fill="#fcb045ff" rx="0.5"></rect><rect width="33.333333333333336" height="1" x="650" y="-0.5" stroke="none" fill="#fd1d1dff" rx="0.5"></rect><rect width="1" height="33.333333333333336" x="666.1666666666666" y="-16.666666666666668" stroke="none" fill="#fd1d1dff" rx="0.5"></rect><rect width="33.333333333333336" height="1" x="716.6666666666666" y="-0.5" stroke="none" fill="#fcb045ff" rx="0.5"></rect><rect width="1" height="33.333333333333336" x="732.8333333333333" y="-16.666666666666668" stroke="none" fill="#fcb045ff" rx="0.5"></rect><rect width="33.333333333333336" height="1" x="783.3333333333333" y="-0.5" stroke="none" fill="#fd1d1dff" rx="0.5"></rect><rect width="1" height="33.333333333333336" x="799.4999999999999" y="-16.666666666666668" stroke="none" fill="#fd1d1dff" rx="0.5"></rect><rect width="33.333333333333336" height="1" x="-16.666666666666668" y="66.16666666666667" stroke="none" fill="#fcb045ff" rx="0.5"></rect><rect width="1" height="33.333333333333336" x="-0.5" y="50" stroke="none" fill="#fcb045ff" rx="0.5"></rect><rect width="33.333333333333336" height="1" x="50" y="66.16666666666667" stroke="none" fill="#fd1d1dff" rx="0.5"></rect><rect width="1" height="33.333333333333336" x="66.16666666666667" y="50" stroke="none" fill="#fd1d1dff" rx="0.5"></rect><rect width="33.333333333333336" height="1" x="116.66666666666667" y="66.16666666666667" stroke="none" fill="#fcb045ff" rx="0.5"></rect><rect width="1" height="33.333333333333336" x="132.83333333333334" y="50" stroke="none" fill="#fcb045ff" rx="0.5"></rect><rect width="33.333333333333336" height="1" x="183.33333333333334" y="66.16666666666667" stroke="none" fill="#fd1d1dff" rx="0.5"></rect><rect width="1" height="33.333333333333336" x="199.5" y="50" stroke="none" fill="#fd1d1dff" rx="0.5"></rect><rect width="33.333333333333336" height="1" x="250.00000000000003" y="66.16666666666667" stroke="none" fill="#fcb045ff" rx="0.5"></rect><rect width="1" height="33.333333333333336" x="266.1666666666667" y="50" stroke="none" fill="#fcb045ff" rx="0.5"></rect><rect width="33.333333333333336" height="1" x="316.6666666666667" y="66.16666666666667" stroke="none" fill="#fd1d1dff" rx="0.5"></rect><rect width="1" height="33.333333333333336" x="332.83333333333337" y="50" stroke="none" fill="#fd1d1dff" rx="0.5"></rect><rect width="33.333333333333336" height="1" x="383.33333333333337" y="66.16666666666667" stroke="none" fill="#fcb045ff" rx="0.5"></rect><rect width="1" height="33.333333333333336" x="399.50000000000006" y="50" stroke="none" fill="#fcb045ff" rx="0.5"></rect><rect width="33.333333333333336" height="1" x="450.00000000000006" y="66.16666666666667" stroke="none" fill="#fd1d1dff" rx="0.5"></rect><rect width="1" height="33.333333333333336" x="466.16666666666674" y="50" stroke="none" fill="#fd1d1dff" rx="0.5"></rect><rect width="33.333333333333336" height="1" x="516.6666666666667" y="66.16666666666667" stroke="none" fill="#fcb045ff" rx="0.5"></rect><rect width="1" height="33.333333333333336" x="532.8333333333334" y="50" stroke="none" fill="#fcb045ff" rx="0.5"></rect><rect width="33.333333333333336" height="1" x="583.3333333333334" y="66.16666666666667" stroke="none" fill="#fd1d1dff" rx="0.5"></rect><rect width="1" height="33.333333333333336" x="599.5" y="50" stroke="none" fill="#fd1d1dff" rx="0.5"></rect><rect width="33.333333333333336" height="1" x="650" y="66.16666666666667" stroke="none" fill="#fcb045ff" rx="0.5"></rect><rect width="1" height="33.333333333333336" x="666.1666666666666" y="50" stroke="none" fill="#fcb045ff" rx="0.5"></rect><rect width="33.333333333333336" height="1" x="716.6666666666666" y="66.16666666666667" stroke="none" fill="#fd1d1dff" rx="0.5"></rect><rect width="1" height="33.333333333333336" x="732.8333333333333" y="50" stroke="none" fill="#fd1d1dff" rx="0.5"></rect><rect width="33.333333333333336" height="1" x="783.3333333333333" y="66.16666666666667" stroke="none" fill="#fcb045ff" rx="0.5"></rect><rect width="1" height="33.333333333333336" x="799.4999999999999" y="50" stroke="none" fill="#fcb045ff" rx="0.5"></rect><rect width="33.333333333333336" height="1" x="-16.666666666666668" y="132.83333333333334" stroke="none" fill="#fd1d1dff" rx="0.5"></rect><rect width="1" height="33.333333333333336" x="-0.5" y="116.66666666666667" stroke="none" fill="#fd1d1dff" rx="0.5"></rect><rect width="33.333333333333336" height="1" x="50" y="132.83333333333334" stroke="none" fill="#fcb045ff" rx="0.5"></rect><rect width="1" height="33.333333333333336" x="66.16666666666667" y="116.66666666666667" stroke="none" fill="#fcb045ff" rx="0.5"></rect><rect width="33.333333333333336" height="1" x="116.66666666666667" y="132.83333333333334" stroke="none" fill="#fd1d1dff" rx="0.5"></rect><rect width="1" height="33.333333333333336" x="132.83333333333334" y="116.66666666666667" stroke="none" fill="#fd1d1dff" rx="0.5"></rect><rect width="33.333333333333336" height="1" x="183.33333333333334" y="132.83333333333334" stroke="none" fill="#fcb045ff" rx="0.5"></rect><rect width="1" height="33.333333333333336" x="199.5" y="116.66666666666667" stroke="none" fill="#fcb045ff" rx="0.5"></rect><rect width="33.333333333333336" height="1" x="250.00000000000003" y="132.83333333333334" stroke="none" fill="#fd1d1dff" rx="0.5"></rect><rect width="1" height="33.333333333333336" x="266.1666666666667" y="116.66666666666667" stroke="none" fill="#fd1d1dff" rx="0.5"></rect><rect width="33.333333333333336" height="1" x="316.6666666666667" y="132.83333333333334" stroke="none" fill="#fcb045ff" rx="0.5"></rect><rect width="1" height="33.333333333333336" x="332.83333333333337" y="116.66666666666667" stroke="none" fill="#fcb045ff" rx="0.5"></rect><rect width="33.333333333333336" height="1" x="383.33333333333337" y="132.83333333333334" stroke="none" fill="#fd1d1dff" rx="0.5"></rect><rect width="1" height="33.333333333333336" x="399.50000000000006" y="116.66666666666667" stroke="none" fill="#fd1d1dff" rx="0.5"></rect><rect width="33.333333333333336" height="1" x="450.00000000000006" y="132.83333333333334" stroke="none" fill="#fcb045ff" rx="0.5"></rect><rect width="1" height="33.333333333333336" x="466.16666666666674" y="116.66666666666667" stroke="none" fill="#fcb045ff" rx="0.5"></rect><rect width="33.333333333333336" height="1" x="516.6666666666667" y="132.83333333333334" stroke="none" fill="#fd1d1dff" rx="0.5"></rect><rect width="1" height="33.333333333333336" x="532.8333333333334" y="116.66666666666667" stroke="none" fill="#fd1d1dff" rx="0.5"></rect><rect width="33.333333333333336" height="1" x="583.3333333333334" y="132.83333333333334" stroke="none" fill="#fcb045ff" rx="0.5"></rect><rect width="1" height="33.333333333333336" x="599.5" y="116.66666666666667" stroke="none" fill="#fcb045ff" rx="0.5"></rect><rect width="33.333333333333336" height="1" x="650" y="132.83333333333334" stroke="none" fill="#fd1d1dff" rx="0.5"></rect><rect width="1" height="33.333333333333336" x="666.1666666666666" y="116.66666666666667" stroke="none" fill="#fd1d1dff" rx="0.5"></rect><rect width="33.333333333333336" height="1" x="716.6666666666666" y="132.83333333333334" stroke="none" fill="#fcb045ff" rx="0.5"></rect><rect width="1" height="33.333333333333336" x="732.8333333333333" y="116.66666666666667" stroke="none" fill="#fcb045ff" rx="0.5"></rect><rect width="33.333333333333336" height="1" x="783.3333333333333" y="132.83333333333334" stroke="none" fill="#fd1d1dff" rx="0.5"></rect><rect width="1" height="33.333333333333336" x="799.4999999999999" y="116.66666666666667" stroke="none" fill="#fd1d1dff" rx="0.5"></rect><rect width="33.333333333333336" height="1" x="-16.666666666666668" y="199.5" stroke="none" fill="#fcb045ff" rx="0.5"></rect><rect width="1" height="33.333333333333336" x="-0.5" y="183.33333333333334" stroke="none" fill="#fcb045ff" rx="0.5"></rect><rect width="33.333333333333336" height="1" x="50" y="199.5" stroke="none" fill="#fd1d1dff" rx="0.5"></rect><rect width="1" height="33.333333333333336" x="66.16666666666667" y="183.33333333333334" stroke="none" fill="#fd1d1dff" rx="0.5"></rect><rect width="33.333333333333336" height="1" x="116.66666666666667" y="199.5" stroke="none" fill="#fcb045ff" rx="0.5"></rect><rect width="1" height="33.333333333333336" x="132.83333333333334" y="183.33333333333334" stroke="none" fill="#fcb045ff" rx="0.5"></rect><rect width="33.333333333333336" height="1" x="183.33333333333334" y="199.5" stroke="none" fill="#fd1d1dff" rx="0.5"></rect><rect width="1" height="33.333333333333336" x="199.5" y="183.33333333333334" stroke="none" fill="#fd1d1dff" rx="0.5"></rect><rect width="33.333333333333336" height="1" x="250.00000000000003" y="199.5" stroke="none" fill="#fcb045ff" rx="0.5"></rect><rect width="1" height="33.333333333333336" x="266.1666666666667" y="183.33333333333334" stroke="none" fill="#fcb045ff" rx="0.5"></rect><rect width="33.333333333333336" height="1" x="316.6666666666667" y="199.5" stroke="none" fill="#fd1d1dff" rx="0.5"></rect><rect width="1" height="33.333333333333336" x="332.83333333333337" y="183.33333333333334" stroke="none" fill="#fd1d1dff" rx="0.5"></rect><rect width="33.333333333333336" height="1" x="383.33333333333337" y="199.5" stroke="none" fill="#fcb045ff" rx="0.5"></rect><rect width="1" height="33.333333333333336" x="399.50000000000006" y="183.33333333333334" stroke="none" fill="#fcb045ff" rx="0.5"></rect><rect width="33.333333333333336" height="1" x="450.00000000000006" y="199.5" stroke="none" fill="#fd1d1dff" rx="0.5"></rect><rect width="1" height="33.333333333333336" x="466.16666666666674" y="183.33333333333334" stroke="none" fill="#fd1d1dff" rx="0.5"></rect><rect width="33.333333333333336" height="1" x="516.6666666666667" y="199.5" stroke="none" fill="#fcb045ff" rx="0.5"></rect><rect width="1" height="33.333333333333336" x="532.8333333333334" y="183.33333333333334" stroke="none" fill="#fcb045ff" rx="0.5"></rect><rect width="33.333333333333336" height="1" x="583.3333333333334" y="199.5" stroke="none" fill="#fd1d1dff" rx="0.5"></rect><rect width="1" height="33.333333333333336" x="599.5" y="183.33333333333334" stroke="none" fill="#fd1d1dff" rx="0.5"></rect><rect width="33.333333333333336" height="1" x="650" y="199.5" stroke="none" fill="#fcb045ff" rx="0.5"></rect><rect width="1" height="33.333333333333336" x="666.1666666666666" y="183.33333333333334" stroke="none" fill="#fcb045ff" rx="0.5"></rect><rect width="33.333333333333336" height="1" x="716.6666666666666" y="199.5" stroke="none" fill="#fd1d1dff" rx="0.5"></rect><rect width="1" height="33.333333333333336" x="732.8333333333333" y="183.33333333333334" stroke="none" fill="#fd1d1dff" rx="0.5"></rect><rect width="33.333333333333336" height="1" x="783.3333333333333" y="199.5" stroke="none" fill="#fcb045ff" rx="0.5"></rect><rect width="1" height="33.333333333333336" x="799.4999999999999" y="183.33333333333334" stroke="none" fill="#fcb045ff" rx="0.5"></rect><rect width="33.333333333333336" height="1" x="-16.666666666666668" y="266.1666666666667" stroke="none" fill="#fd1d1dff" rx="0.5"></rect><rect width="1" height="33.333333333333336" x="-0.5" y="250.00000000000003" stroke="none" fill="#fd1d1dff" rx="0.5"></rect><rect width="33.333333333333336" height="1" x="50" y="266.1666666666667" stroke="none" fill="#fcb045ff" rx="0.5"></rect><rect width="1" height="33.333333333333336" x="66.16666666666667" y="250.00000000000003" stroke="none" fill="#fcb045ff" rx="0.5"></rect><rect width="33.333333333333336" height="1" x="116.66666666666667" y="266.1666666666667" stroke="none" fill="#fd1d1dff" rx="0.5"></rect><rect width="1" height="33.333333333333336" x="132.83333333333334" y="250.00000000000003" stroke="none" fill="#fd1d1dff" rx="0.5"></rect><rect width="33.333333333333336" height="1" x="183.33333333333334" y="266.1666666666667" stroke="none" fill="#fcb045ff" rx="0.5"></rect><rect width="1" height="33.333333333333336" x="199.5" y="250.00000000000003" stroke="none" fill="#fcb045ff" rx="0.5"></rect><rect width="33.333333333333336" height="1" x="250.00000000000003" y="266.1666666666667" stroke="none" fill="#fd1d1dff" rx="0.5"></rect><rect width="1" height="33.333333333333336" x="266.1666666666667" y="250.00000000000003" stroke="none" fill="#fd1d1dff" rx="0.5"></rect><rect width="33.333333333333336" height="1" x="316.6666666666667" y="266.1666666666667" stroke="none" fill="#fcb045ff" rx="0.5"></rect><rect width="1" height="33.333333333333336" x="332.83333333333337" y="250.00000000000003" stroke="none" fill="#fcb045ff" rx="0.5"></rect><rect width="33.333333333333336" height="1" x="383.33333333333337" y="266.1666666666667" stroke="none" fill="#fd1d1dff" rx="0.5"></rect><rect width="1" height="33.333333333333336" x="399.50000000000006" y="250.00000000000003" stroke="none" fill="#fd1d1dff" rx="0.5"></rect><rect width="33.333333333333336" height="1" x="450.00000000000006" y="266.1666666666667" stroke="none" fill="#fcb045ff" rx="0.5"></rect><rect width="1" height="33.333333333333336" x="466.16666666666674" y="250.00000000000003" stroke="none" fill="#fcb045ff" rx="0.5"></rect><rect width="33.333333333333336" height="1" x="516.6666666666667" y="266.1666666666667" stroke="none" fill="#fd1d1dff" rx="0.5"></rect><rect width="1" height="33.333333333333336" x="532.8333333333334" y="250.00000000000003" stroke="none" fill="#fd1d1dff" rx="0.5"></rect><rect width="33.333333333333336" height="1" x="583.3333333333334" y="266.1666666666667" stroke="none" fill="#fcb045ff" rx="0.5"></rect><rect width="1" height="33.333333333333336" x="599.5" y="250.00000000000003" stroke="none" fill="#fcb045ff" rx="0.5"></rect><rect width="33.333333333333336" height="1" x="650" y="266.1666666666667" stroke="none" fill="#fd1d1dff" rx="0.5"></rect><rect width="1" height="33.333333333333336" x="666.1666666666666" y="250.00000000000003" stroke="none" fill="#fd1d1dff" rx="0.5"></rect><rect width="33.333333333333336" height="1" x="716.6666666666666" y="266.1666666666667" stroke="none" fill="#fcb045ff" rx="0.5"></rect><rect width="1" height="33.333333333333336" x="732.8333333333333" y="250.00000000000003" stroke="none" fill="#fcb045ff" rx="0.5"></rect><rect width="33.333333333333336" height="1" x="783.3333333333333" y="266.1666666666667" stroke="none" fill="#fd1d1dff" rx="0.5"></rect><rect width="1" height="33.333333333333336" x="799.4999999999999" y="250.00000000000003" stroke="none" fill="#fd1d1dff" rx="0.5"></rect><rect width="33.333333333333336" height="1" x="-16.666666666666668" y="332.83333333333337" stroke="none" fill="#fcb045ff" rx="0.5"></rect><rect width="1" height="33.333333333333336" x="-0.5" y="316.6666666666667" stroke="none" fill="#fcb045ff" rx="0.5"></rect><rect width="33.333333333333336" height="1" x="50" y="332.83333333333337" stroke="none" fill="#fd1d1dff" rx="0.5"></rect><rect width="1" height="33.333333333333336" x="66.16666666666667" y="316.6666666666667" stroke="none" fill="#fd1d1dff" rx="0.5"></rect><rect width="33.333333333333336" height="1" x="116.66666666666667" y="332.83333333333337" stroke="none" fill="#fcb045ff" rx="0.5"></rect><rect width="1" height="33.333333333333336" x="132.83333333333334" y="316.6666666666667" stroke="none" fill="#fcb045ff" rx="0.5"></rect><rect width="33.333333333333336" height="1" x="183.33333333333334" y="332.83333333333337" stroke="none" fill="#fd1d1dff" rx="0.5"></rect><rect width="1" height="33.333333333333336" x="199.5" y="316.6666666666667" stroke="none" fill="#fd1d1dff" rx="0.5"></rect><rect width="33.333333333333336" height="1" x="250.00000000000003" y="332.83333333333337" stroke="none" fill="#fcb045ff" rx="0.5"></rect><rect width="1" height="33.333333333333336" x="266.1666666666667" y="316.6666666666667" stroke="none" fill="#fcb045ff" rx="0.5"></rect><rect width="33.333333333333336" height="1" x="316.6666666666667" y="332.83333333333337" stroke="none" fill="#fd1d1dff" rx="0.5"></rect><rect width="1" height="33.333333333333336" x="332.83333333333337" y="316.6666666666667" stroke="none" fill="#fd1d1dff" rx="0.5"></rect><rect width="33.333333333333336" height="1" x="383.33333333333337" y="332.83333333333337" stroke="none" fill="#fcb045ff" rx="0.5"></rect><rect width="1" height="33.333333333333336" x="399.50000000000006" y="316.6666666666667" stroke="none" fill="#fcb045ff" rx="0.5"></rect><rect width="33.333333333333336" height="1" x="450.00000000000006" y="332.83333333333337" stroke="none" fill="#fd1d1dff" rx="0.5"></rect><rect width="1" height="33.333333333333336" x="466.16666666666674" y="316.6666666666667" stroke="none" fill="#fd1d1dff" rx="0.5"></rect><rect width="33.333333333333336" height="1" x="516.6666666666667" y="332.83333333333337" stroke="none" fill="#fcb045ff" rx="0.5"></rect><rect width="1" height="33.333333333333336" x="532.8333333333334" y="316.6666666666667" stroke="none" fill="#fcb045ff" rx="0.5"></rect><rect width="33.333333333333336" height="1" x="583.3333333333334" y="332.83333333333337" stroke="none" fill="#fd1d1dff" rx="0.5"></rect><rect width="1" height="33.333333333333336" x="599.5" y="316.6666666666667" stroke="none" fill="#fd1d1dff" rx="0.5"></rect><rect width="33.333333333333336" height="1" x="650" y="332.83333333333337" stroke="none" fill="#fcb045ff" rx="0.5"></rect><rect width="1" height="33.333333333333336" x="666.1666666666666" y="316.6666666666667" stroke="none" fill="#fcb045ff" rx="0.5"></rect><rect width="33.333333333333336" height="1" x="716.6666666666666" y="332.83333333333337" stroke="none" fill="#fd1d1dff" rx="0.5"></rect><rect width="1" height="33.333333333333336" x="732.8333333333333" y="316.6666666666667" stroke="none" fill="#fd1d1dff" rx="0.5"></rect><rect width="33.333333333333336" height="1" x="783.3333333333333" y="332.83333333333337" stroke="none" fill="#fcb045ff" rx="0.5"></rect><rect width="1" height="33.333333333333336" x="799.4999999999999" y="316.6666666666667" stroke="none" fill="#fcb045ff" rx="0.5"></rect><rect width="33.333333333333336" height="1" x="-16.666666666666668" y="399.50000000000006" stroke="none" fill="#fd1d1dff" rx="0.5"></rect><rect width="1" height="33.333333333333336" x="-0.5" y="383.33333333333337" stroke="none" fill="#fd1d1dff" rx="0.5"></rect><rect width="33.333333333333336" height="1" x="50" y="399.50000000000006" stroke="none" fill="#fcb045ff" rx="0.5"></rect><rect width="1" height="33.333333333333336" x="66.16666666666667" y="383.33333333333337" stroke="none" fill="#fcb045ff" rx="0.5"></rect><rect width="33.333333333333336" height="1" x="116.66666666666667" y="399.50000000000006" stroke="none" fill="#fd1d1dff" rx="0.5"></rect><rect width="1" height="33.333333333333336" x="132.83333333333334" y="383.33333333333337" stroke="none" fill="#fd1d1dff" rx="0.5"></rect><rect width="33.333333333333336" height="1" x="183.33333333333334" y="399.50000000000006" stroke="none" fill="#fcb045ff" rx="0.5"></rect><rect width="1" height="33.333333333333336" x="199.5" y="383.33333333333337" stroke="none" fill="#fcb045ff" rx="0.5"></rect><rect width="33.333333333333336" height="1" x="250.00000000000003" y="399.50000000000006" stroke="none" fill="#fd1d1dff" rx="0.5"></rect><rect width="1" height="33.333333333333336" x="266.1666666666667" y="383.33333333333337" stroke="none" fill="#fd1d1dff" rx="0.5"></rect><rect width="33.333333333333336" height="1" x="316.6666666666667" y="399.50000000000006" stroke="none" fill="#fcb045ff" rx="0.5"></rect><rect width="1" height="33.333333333333336" x="332.83333333333337" y="383.33333333333337" stroke="none" fill="#fcb045ff" rx="0.5"></rect><rect width="33.333333333333336" height="1" x="383.33333333333337" y="399.50000000000006" stroke="none" fill="#fd1d1dff" rx="0.5"></rect><rect width="1" height="33.333333333333336" x="399.50000000000006" y="383.33333333333337" stroke="none" fill="#fd1d1dff" rx="0.5"></rect><rect width="33.333333333333336" height="1" x="450.00000000000006" y="399.50000000000006" stroke="none" fill="#fcb045ff" rx="0.5"></rect><rect width="1" height="33.333333333333336" x="466.16666666666674" y="383.33333333333337" stroke="none" fill="#fcb045ff" rx="0.5"></rect><rect width="33.333333333333336" height="1" x="516.6666666666667" y="399.50000000000006" stroke="none" fill="#fd1d1dff" rx="0.5"></rect><rect width="1" height="33.333333333333336" x="532.8333333333334" y="383.33333333333337" stroke="none" fill="#fd1d1dff" rx="0.5"></rect><rect width="33.333333333333336" height="1" x="583.3333333333334" y="399.50000000000006" stroke="none" fill="#fcb045ff" rx="0.5"></rect><rect width="1" height="33.333333333333336" x="599.5" y="383.33333333333337" stroke="none" fill="#fcb045ff" rx="0.5"></rect><rect width="33.333333333333336" height="1" x="650" y="399.50000000000006" stroke="none" fill="#fd1d1dff" rx="0.5"></rect><rect width="1" height="33.333333333333336" x="666.1666666666666" y="383.33333333333337" stroke="none" fill="#fd1d1dff" rx="0.5"></rect><rect width="33.333333333333336" height="1" x="716.6666666666666" y="399.50000000000006" stroke="none" fill="#fcb045ff" rx="0.5"></rect><rect width="1" height="33.333333333333336" x="732.8333333333333" y="383.33333333333337" stroke="none" fill="#fcb045ff" rx="0.5"></rect><rect width="33.333333333333336" height="1" x="783.3333333333333" y="399.50000000000006" stroke="none" fill="#fd1d1dff" rx="0.5"></rect><rect width="1" height="33.333333333333336" x="799.4999999999999" y="383.33333333333337" stroke="none" fill="#fd1d1dff" rx="0.5"></rect><rect width="33.333333333333336" height="1" x="-16.666666666666668" y="466.16666666666674" stroke="none" fill="#fcb045ff" rx="0.5"></rect><rect width="1" height="33.333333333333336" x="-0.5" y="450.00000000000006" stroke="none" fill="#fcb045ff" rx="0.5"></rect><rect width="33.333333333333336" height="1" x="50" y="466.16666666666674" stroke="none" fill="#fd1d1dff" rx="0.5"></rect><rect width="1" height="33.333333333333336" x="66.16666666666667" y="450.00000000000006" stroke="none" fill="#fd1d1dff" rx="0.5"></rect><rect width="33.333333333333336" height="1" x="116.66666666666667" y="466.16666666666674" stroke="none" fill="#fcb045ff" rx="0.5"></rect><rect width="1" height="33.333333333333336" x="132.83333333333334" y="450.00000000000006" stroke="none" fill="#fcb045ff" rx="0.5"></rect><rect width="33.333333333333336" height="1" x="183.33333333333334" y="466.16666666666674" stroke="none" fill="#fd1d1dff" rx="0.5"></rect><rect width="1" height="33.333333333333336" x="199.5" y="450.00000000000006" stroke="none" fill="#fd1d1dff" rx="0.5"></rect><rect width="33.333333333333336" height="1" x="250.00000000000003" y="466.16666666666674" stroke="none" fill="#fcb045ff" rx="0.5"></rect><rect width="1" height="33.333333333333336" x="266.1666666666667" y="450.00000000000006" stroke="none" fill="#fcb045ff" rx="0.5"></rect><rect width="33.333333333333336" height="1" x="316.6666666666667" y="466.16666666666674" stroke="none" fill="#fd1d1dff" rx="0.5"></rect><rect width="1" height="33.333333333333336" x="332.83333333333337" y="450.00000000000006" stroke="none" fill="#fd1d1dff" rx="0.5"></rect><rect width="33.333333333333336" height="1" x="383.33333333333337" y="466.16666666666674" stroke="none" fill="#fcb045ff" rx="0.5"></rect><rect width="1" height="33.333333333333336" x="399.50000000000006" y="450.00000000000006" stroke="none" fill="#fcb045ff" rx="0.5"></rect><rect width="33.333333333333336" height="1" x="450.00000000000006" y="466.16666666666674" stroke="none" fill="#fd1d1dff" rx="0.5"></rect><rect width="1" height="33.333333333333336" x="466.16666666666674" y="450.00000000000006" stroke="none" fill="#fd1d1dff" rx="0.5"></rect><rect width="33.333333333333336" height="1" x="516.6666666666667" y="466.16666666666674" stroke="none" fill="#fcb045ff" rx="0.5"></rect><rect width="1" height="33.333333333333336" x="532.8333333333334" y="450.00000000000006" stroke="none" fill="#fcb045ff" rx="0.5"></rect><rect width="33.333333333333336" height="1" x="583.3333333333334" y="466.16666666666674" stroke="none" fill="#fd1d1dff" rx="0.5"></rect><rect width="1" height="33.333333333333336" x="599.5" y="450.00000000000006" stroke="none" fill="#fd1d1dff" rx="0.5"></rect><rect width="33.333333333333336" height="1" x="650" y="466.16666666666674" stroke="none" fill="#fcb045ff" rx="0.5"></rect><rect width="1" height="33.333333333333336" x="666.1666666666666" y="450.00000000000006" stroke="none" fill="#fcb045ff" rx="0.5"></rect><rect width="33.333333333333336" height="1" x="716.6666666666666" y="466.16666666666674" stroke="none" fill="#fd1d1dff" rx="0.5"></rect><rect width="1" height="33.333333333333336" x="732.8333333333333" y="450.00000000000006" stroke="none" fill="#fd1d1dff" rx="0.5"></rect><rect width="33.333333333333336" height="1" x="783.3333333333333" y="466.16666666666674" stroke="none" fill="#fcb045ff" rx="0.5"></rect><rect width="1" height="33.333333333333336" x="799.4999999999999" y="450.00000000000006" stroke="none" fill="#fcb045ff" rx="0.5"></rect><rect width="33.333333333333336" height="1" x="-16.666666666666668" y="532.8333333333334" stroke="none" fill="#fd1d1dff" rx="0.5"></rect><rect width="1" height="33.333333333333336" x="-0.5" y="516.6666666666667" stroke="none" fill="#fd1d1dff" rx="0.5"></rect><rect width="33.333333333333336" height="1" x="50" y="532.8333333333334" stroke="none" fill="#fcb045ff" rx="0.5"></rect><rect width="1" height="33.333333333333336" x="66.16666666666667" y="516.6666666666667" stroke="none" fill="#fcb045ff" rx="0.5"></rect><rect width="33.333333333333336" height="1" x="116.66666666666667" y="532.8333333333334" stroke="none" fill="#fd1d1dff" rx="0.5"></rect><rect width="1" height="33.333333333333336" x="132.83333333333334" y="516.6666666666667" stroke="none" fill="#fd1d1dff" rx="0.5"></rect><rect width="33.333333333333336" height="1" x="183.33333333333334" y="532.8333333333334" stroke="none" fill="#fcb045ff" rx="0.5"></rect><rect width="1" height="33.333333333333336" x="199.5" y="516.6666666666667" stroke="none" fill="#fcb045ff" rx="0.5"></rect><rect width="33.333333333333336" height="1" x="250.00000000000003" y="532.8333333333334" stroke="none" fill="#fd1d1dff" rx="0.5"></rect><rect width="1" height="33.333333333333336" x="266.1666666666667" y="516.6666666666667" stroke="none" fill="#fd1d1dff" rx="0.5"></rect><rect width="33.333333333333336" height="1" x="316.6666666666667" y="532.8333333333334" stroke="none" fill="#fcb045ff" rx="0.5"></rect><rect width="1" height="33.333333333333336" x="332.83333333333337" y="516.6666666666667" stroke="none" fill="#fcb045ff" rx="0.5"></rect><rect width="33.333333333333336" height="1" x="383.33333333333337" y="532.8333333333334" stroke="none" fill="#fd1d1dff" rx="0.5"></rect><rect width="1" height="33.333333333333336" x="399.50000000000006" y="516.6666666666667" stroke="none" fill="#fd1d1dff" rx="0.5"></rect><rect width="33.333333333333336" height="1" x="450.00000000000006" y="532.8333333333334" stroke="none" fill="#fcb045ff" rx="0.5"></rect><rect width="1" height="33.333333333333336" x="466.16666666666674" y="516.6666666666667" stroke="none" fill="#fcb045ff" rx="0.5"></rect><rect width="33.333333333333336" height="1" x="516.6666666666667" y="532.8333333333334" stroke="none" fill="#fd1d1dff" rx="0.5"></rect><rect width="1" height="33.333333333333336" x="532.8333333333334" y="516.6666666666667" stroke="none" fill="#fd1d1dff" rx="0.5"></rect><rect width="33.333333333333336" height="1" x="583.3333333333334" y="532.8333333333334" stroke="none" fill="#fcb045ff" rx="0.5"></rect><rect width="1" height="33.333333333333336" x="599.5" y="516.6666666666667" stroke="none" fill="#fcb045ff" rx="0.5"></rect><rect width="33.333333333333336" height="1" x="650" y="532.8333333333334" stroke="none" fill="#fd1d1dff" rx="0.5"></rect><rect width="1" height="33.333333333333336" x="666.1666666666666" y="516.6666666666667" stroke="none" fill="#fd1d1dff" rx="0.5"></rect><rect width="33.333333333333336" height="1" x="716.6666666666666" y="532.8333333333334" stroke="none" fill="#fcb045ff" rx="0.5"></rect><rect width="1" height="33.333333333333336" x="732.8333333333333" y="516.6666666666667" stroke="none" fill="#fcb045ff" rx="0.5"></rect><rect width="33.333333333333336" height="1" x="783.3333333333333" y="532.8333333333334" stroke="none" fill="#fd1d1dff" rx="0.5"></rect><rect width="1" height="33.333333333333336" x="799.4999999999999" y="516.6666666666667" stroke="none" fill="#fd1d1dff" rx="0.5"></rect><rect width="33.333333333333336" height="1" x="-16.666666666666668" y="599.5" stroke="none" fill="#fcb045ff" rx="0.5"></rect><rect width="1" height="33.333333333333336" x="-0.5" y="583.3333333333334" stroke="none" fill="#fcb045ff" rx="0.5"></rect><rect width="33.333333333333336" height="1" x="50" y="599.5" stroke="none" fill="#fd1d1dff" rx="0.5"></rect><rect width="1" height="33.333333333333336" x="66.16666666666667" y="583.3333333333334" stroke="none" fill="#fd1d1dff" rx="0.5"></rect><rect width="33.333333333333336" height="1" x="116.66666666666667" y="599.5" stroke="none" fill="#fcb045ff" rx="0.5"></rect><rect width="1" height="33.333333333333336" x="132.83333333333334" y="583.3333333333334" stroke="none" fill="#fcb045ff" rx="0.5"></rect><rect width="33.333333333333336" height="1" x="183.33333333333334" y="599.5" stroke="none" fill="#fd1d1dff" rx="0.5"></rect><rect width="1" height="33.333333333333336" x="199.5" y="583.3333333333334" stroke="none" fill="#fd1d1dff" rx="0.5"></rect><rect width="33.333333333333336" height="1" x="250.00000000000003" y="599.5" stroke="none" fill="#fcb045ff" rx="0.5"></rect><rect width="1" height="33.333333333333336" x="266.1666666666667" y="583.3333333333334" stroke="none" fill="#fcb045ff" rx="0.5"></rect><rect width="33.333333333333336" height="1" x="316.6666666666667" y="599.5" stroke="none" fill="#fd1d1dff" rx="0.5"></rect><rect width="1" height="33.333333333333336" x="332.83333333333337" y="583.3333333333334" stroke="none" fill="#fd1d1dff" rx="0.5"></rect><rect width="33.333333333333336" height="1" x="383.33333333333337" y="599.5" stroke="none" fill="#fcb045ff" rx="0.5"></rect><rect width="1" height="33.333333333333336" x="399.50000000000006" y="583.3333333333334" stroke="none" fill="#fcb045ff" rx="0.5"></rect><rect width="33.333333333333336" height="1" x="450.00000000000006" y="599.5" stroke="none" fill="#fd1d1dff" rx="0.5"></rect><rect width="1" height="33.333333333333336" x="466.16666666666674" y="583.3333333333334" stroke="none" fill="#fd1d1dff" rx="0.5"></rect><rect width="33.333333333333336" height="1" x="516.6666666666667" y="599.5" stroke="none" fill="#fcb045ff" rx="0.5"></rect><rect width="1" height="33.333333333333336" x="532.8333333333334" y="583.3333333333334" stroke="none" fill="#fcb045ff" rx="0.5"></rect><rect width="33.333333333333336" height="1" x="583.3333333333334" y="599.5" stroke="none" fill="#fd1d1dff" rx="0.5"></rect><rect width="1" height="33.333333333333336" x="599.5" y="583.3333333333334" stroke="none" fill="#fd1d1dff" rx="0.5"></rect><rect width="33.333333333333336" height="1" x="650" y="599.5" stroke="none" fill="#fcb045ff" rx="0.5"></rect><rect width="1" height="33.333333333333336" x="666.1666666666666" y="583.3333333333334" stroke="none" fill="#fcb045ff" rx="0.5"></rect><rect width="33.333333333333336" height="1" x="716.6666666666666" y="599.5" stroke="none" fill="#fd1d1dff" rx="0.5"></rect><rect width="1" height="33.333333333333336" x="732.8333333333333" y="583.3333333333334" stroke="none" fill="#fd1d1dff" rx="0.5"></rect><rect width="33.333333333333336" height="1" x="783.3333333333333" y="599.5" stroke="none" fill="#fcb045ff" rx="0.5"></rect><rect width="1" height="33.333333333333336" x="799.4999999999999" y="583.3333333333334" stroke="none" fill="#fcb045ff" rx="0.5"></rect><rect width="33.333333333333336" height="1" x="-16.666666666666668" y="666.1666666666666" stroke="none" fill="#fd1d1dff" rx="0.5"></rect><rect width="1" height="33.333333333333336" x="-0.5" y="650" stroke="none" fill="#fd1d1dff" rx="0.5"></rect><rect width="33.333333333333336" height="1" x="50" y="666.1666666666666" stroke="none" fill="#fcb045ff" rx="0.5"></rect><rect width="1" height="33.333333333333336" x="66.16666666666667" y="650" stroke="none" fill="#fcb045ff" rx="0.5"></rect><rect width="33.333333333333336" height="1" x="116.66666666666667" y="666.1666666666666" stroke="none" fill="#fd1d1dff" rx="0.5"></rect><rect width="1" height="33.333333333333336" x="132.83333333333334" y="650" stroke="none" fill="#fd1d1dff" rx="0.5"></rect><rect width="33.333333333333336" height="1" x="183.33333333333334" y="666.1666666666666" stroke="none" fill="#fcb045ff" rx="0.5"></rect><rect width="1" height="33.333333333333336" x="199.5" y="650" stroke="none" fill="#fcb045ff" rx="0.5"></rect><rect width="33.333333333333336" height="1" x="250.00000000000003" y="666.1666666666666" stroke="none" fill="#fd1d1dff" rx="0.5"></rect><rect width="1" height="33.333333333333336" x="266.1666666666667" y="650" stroke="none" fill="#fd1d1dff" rx="0.5"></rect><rect width="33.333333333333336" height="1" x="316.6666666666667" y="666.1666666666666" stroke="none" fill="#fcb045ff" rx="0.5"></rect><rect width="1" height="33.333333333333336" x="332.83333333333337" y="650" stroke="none" fill="#fcb045ff" rx="0.5"></rect><rect width="33.333333333333336" height="1" x="383.33333333333337" y="666.1666666666666" stroke="none" fill="#fd1d1dff" rx="0.5"></rect><rect width="1" height="33.333333333333336" x="399.50000000000006" y="650" stroke="none" fill="#fd1d1dff" rx="0.5"></rect><rect width="33.333333333333336" height="1" x="450.00000000000006" y="666.1666666666666" stroke="none" fill="#fcb045ff" rx="0.5"></rect><rect width="1" height="33.333333333333336" x="466.16666666666674" y="650" stroke="none" fill="#fcb045ff" rx="0.5"></rect><rect width="33.333333333333336" height="1" x="516.6666666666667" y="666.1666666666666" stroke="none" fill="#fd1d1dff" rx="0.5"></rect><rect width="1" height="33.333333333333336" x="532.8333333333334" y="650" stroke="none" fill="#fd1d1dff" rx="0.5"></rect><rect width="33.333333333333336" height="1" x="583.3333333333334" y="666.1666666666666" stroke="none" fill="#fcb045ff" rx="0.5"></rect><rect width="1" height="33.333333333333336" x="599.5" y="650" stroke="none" fill="#fcb045ff" rx="0.5"></rect><rect width="33.333333333333336" height="1" x="650" y="666.1666666666666" stroke="none" fill="#fd1d1dff" rx="0.5"></rect><rect width="1" height="33.333333333333336" x="666.1666666666666" y="650" stroke="none" fill="#fd1d1dff" rx="0.5"></rect><rect width="33.333333333333336" height="1" x="716.6666666666666" y="666.1666666666666" stroke="none" fill="#fcb045ff" rx="0.5"></rect><rect width="1" height="33.333333333333336" x="732.8333333333333" y="650" stroke="none" fill="#fcb045ff" rx="0.5"></rect><rect width="33.333333333333336" height="1" x="783.3333333333333" y="666.1666666666666" stroke="none" fill="#fd1d1dff" rx="0.5"></rect><rect width="1" height="33.333333333333336" x="799.4999999999999" y="650" stroke="none" fill="#fd1d1dff" rx="0.5"></rect><rect width="33.333333333333336" height="1" x="-16.666666666666668" y="732.8333333333333" stroke="none" fill="#fcb045ff" rx="0.5"></rect><rect width="1" height="33.333333333333336" x="-0.5" y="716.6666666666666" stroke="none" fill="#fcb045ff" rx="0.5"></rect><rect width="33.333333333333336" height="1" x="50" y="732.8333333333333" stroke="none" fill="#fd1d1dff" rx="0.5"></rect><rect width="1" height="33.333333333333336" x="66.16666666666667" y="716.6666666666666" stroke="none" fill="#fd1d1dff" rx="0.5"></rect><rect width="33.333333333333336" height="1" x="116.66666666666667" y="732.8333333333333" stroke="none" fill="#fcb045ff" rx="0.5"></rect><rect width="1" height="33.333333333333336" x="132.83333333333334" y="716.6666666666666" stroke="none" fill="#fcb045ff" rx="0.5"></rect><rect width="33.333333333333336" height="1" x="183.33333333333334" y="732.8333333333333" stroke="none" fill="#fd1d1dff" rx="0.5"></rect><rect width="1" height="33.333333333333336" x="199.5" y="716.6666666666666" stroke="none" fill="#fd1d1dff" rx="0.5"></rect><rect width="33.333333333333336" height="1" x="250.00000000000003" y="732.8333333333333" stroke="none" fill="#fcb045ff" rx="0.5"></rect><rect width="1" height="33.333333333333336" x="266.1666666666667" y="716.6666666666666" stroke="none" fill="#fcb045ff" rx="0.5"></rect><rect width="33.333333333333336" height="1" x="316.6666666666667" y="732.8333333333333" stroke="none" fill="#fd1d1dff" rx="0.5"></rect><rect width="1" height="33.333333333333336" x="332.83333333333337" y="716.6666666666666" stroke="none" fill="#fd1d1dff" rx="0.5"></rect><rect width="33.333333333333336" height="1" x="383.33333333333337" y="732.8333333333333" stroke="none" fill="#fcb045ff" rx="0.5"></rect><rect width="1" height="33.333333333333336" x="399.50000000000006" y="716.6666666666666" stroke="none" fill="#fcb045ff" rx="0.5"></rect><rect width="33.333333333333336" height="1" x="450.00000000000006" y="732.8333333333333" stroke="none" fill="#fd1d1dff" rx="0.5"></rect><rect width="1" height="33.333333333333336" x="466.16666666666674" y="716.6666666666666" stroke="none" fill="#fd1d1dff" rx="0.5"></rect><rect width="33.333333333333336" height="1" x="516.6666666666667" y="732.8333333333333" stroke="none" fill="#fcb045ff" rx="0.5"></rect><rect width="1" height="33.333333333333336" x="532.8333333333334" y="716.6666666666666" stroke="none" fill="#fcb045ff" rx="0.5"></rect><rect width="33.333333333333336" height="1" x="583.3333333333334" y="732.8333333333333" stroke="none" fill="#fd1d1dff" rx="0.5"></rect><rect width="1" height="33.333333333333336" x="599.5" y="716.6666666666666" stroke="none" fill="#fd1d1dff" rx="0.5"></rect><rect width="33.333333333333336" height="1" x="650" y="732.8333333333333" stroke="none" fill="#fcb045ff" rx="0.5"></rect><rect width="1" height="33.333333333333336" x="666.1666666666666" y="716.6666666666666" stroke="none" fill="#fcb045ff" rx="0.5"></rect><rect width="33.333333333333336" height="1" x="716.6666666666666" y="732.8333333333333" stroke="none" fill="#fd1d1dff" rx="0.5"></rect><rect width="1" height="33.333333333333336" x="732.8333333333333" y="716.6666666666666" stroke="none" fill="#fd1d1dff" rx="0.5"></rect><rect width="33.333333333333336" height="1" x="783.3333333333333" y="732.8333333333333" stroke="none" fill="#fcb045ff" rx="0.5"></rect><rect width="1" height="33.333333333333336" x="799.4999999999999" y="716.6666666666666" stroke="none" fill="#fcb045ff" rx="0.5"></rect><rect width="33.333333333333336" height="1" x="-16.666666666666668" y="799.4999999999999" stroke="none" fill="#fd1d1dff" rx="0.5"></rect><rect width="1" height="33.333333333333336" x="-0.5" y="783.3333333333333" stroke="none" fill="#fd1d1dff" rx="0.5"></rect><rect width="33.333333333333336" height="1" x="50" y="799.4999999999999" stroke="none" fill="#fcb045ff" rx="0.5"></rect><rect width="1" height="33.333333333333336" x="66.16666666666667" y="783.3333333333333" stroke="none" fill="#fcb045ff" rx="0.5"></rect><rect width="33.333333333333336" height="1" x="116.66666666666667" y="799.4999999999999" stroke="none" fill="#fd1d1dff" rx="0.5"></rect><rect width="1" height="33.333333333333336" x="132.83333333333334" y="783.3333333333333" stroke="none" fill="#fd1d1dff" rx="0.5"></rect><rect width="33.333333333333336" height="1" x="183.33333333333334" y="799.4999999999999" stroke="none" fill="#fcb045ff" rx="0.5"></rect><rect width="1" height="33.333333333333336" x="199.5" y="783.3333333333333" stroke="none" fill="#fcb045ff" rx="0.5"></rect><rect width="33.333333333333336" height="1" x="250.00000000000003" y="799.4999999999999" stroke="none" fill="#fd1d1dff" rx="0.5"></rect><rect width="1" height="33.333333333333336" x="266.1666666666667" y="783.3333333333333" stroke="none" fill="#fd1d1dff" rx="0.5"></rect><rect width="33.333333333333336" height="1" x="316.6666666666667" y="799.4999999999999" stroke="none" fill="#fcb045ff" rx="0.5"></rect><rect width="1" height="33.333333333333336" x="332.83333333333337" y="783.3333333333333" stroke="none" fill="#fcb045ff" rx="0.5"></rect><rect width="33.333333333333336" height="1" x="383.33333333333337" y="799.4999999999999" stroke="none" fill="#fd1d1dff" rx="0.5"></rect><rect width="1" height="33.333333333333336" x="399.50000000000006" y="783.3333333333333" stroke="none" fill="#fd1d1dff" rx="0.5"></rect><rect width="33.333333333333336" height="1" x="450.00000000000006" y="799.4999999999999" stroke="none" fill="#fcb045ff" rx="0.5"></rect><rect width="1" height="33.333333333333336" x="466.16666666666674" y="783.3333333333333" stroke="none" fill="#fcb045ff" rx="0.5"></rect><rect width="33.333333333333336" height="1" x="516.6666666666667" y="799.4999999999999" stroke="none" fill="#fd1d1dff" rx="0.5"></rect><rect width="1" height="33.333333333333336" x="532.8333333333334" y="783.3333333333333" stroke="none" fill="#fd1d1dff" rx="0.5"></rect><rect width="33.333333333333336" height="1" x="583.3333333333334" y="799.4999999999999" stroke="none" fill="#fcb045ff" rx="0.5"></rect><rect width="1" height="33.333333333333336" x="599.5" y="783.3333333333333" stroke="none" fill="#fcb045ff" rx="0.5"></rect><rect width="33.333333333333336" height="1" x="650" y="799.4999999999999" stroke="none" fill="#fd1d1dff" rx="0.5"></rect><rect width="1" height="33.333333333333336" x="666.1666666666666" y="783.3333333333333" stroke="none" fill="#fd1d1dff" rx="0.5"></rect><rect width="33.333333333333336" height="1" x="716.6666666666666" y="799.4999999999999" stroke="none" fill="#fcb045ff" rx="0.5"></rect><rect width="1" height="33.333333333333336" x="732.8333333333333" y="783.3333333333333" stroke="none" fill="#fcb045ff" rx="0.5"></rect><rect width="33.333333333333336" height="1" x="783.3333333333333" y="799.4999999999999" stroke="none" fill="#fd1d1dff" rx="0.5"></rect><rect width="1" height="33.333333333333336" x="799.4999999999999" y="783.3333333333333" stroke="none" fill="#fd1d1dff" rx="0.5"></rect></g></svg>